<svg width="50.00000000000001" height="50.00000000000001" xmlns="http://www.w3.org/2000/svg">

 <title/>
 <g>
  <title>background</title>
  <rect fill="none" id="canvas_background" height="402" width="582" y="-1" x="-1"/>
 </g>
 <g>
  <title>Layer 1</title>
  <path fill="#ffffff" id="svg_1" d="m36,19.8l0,-6.5a11,11 0 1 0 -22,0l0,6.5a18,18 0 0 0 -7,14.2l0,12a2,2 0 0 0 2,2l32,0a2,2 0 0 0 2,-2l0,-12a18,18 0 0 0 -7,-14.2zm-18,-6.5a7,7 0 1 1 14,0l0,4.1a18,18 0 0 0 -14,0l0,-4.1zm21,30.7l-28,0l0,-10a14,14 0 0 1 28,0l0,10z" class="cls-1"/>
  <path fill="#ffffff" id="svg_2" d="m25,29a3,3 0 0 0 -2,5.2l0,2.8a2,2 0 0 0 4,0l0,-2.8a3,3 0 0 0 -2,-5.2z" class="cls-1"/>
 </g>
</svg>