<svg width="24" height="24" xmlns="http://www.w3.org/2000/svg">

 <g>
  <title>background</title>
  <rect fill="none" id="canvas_background" height="402" width="582" y="-1" x="-1"/>
 </g>
 <g>
  <title>Layer 1</title>
  <path fill="#ffffff" id="svg_1" d="m14.16,12.93a1,1 0 0 1 -0.81,-0.41a1,1 0 0 1 0.22,-1.4c2.65,-1.91 6.43,-5.32 6.48,-6.89a0.29,0.29 0 0 0 -0.11,-0.23a0.32,0.32 0 0 0 -0.3,-0.08c-1.56,0.26 -4.56,4.43 -6.19,7.31a1,1 0 1 1 -1.74,-1c0.73,-1.29 4.55,-7.78 7.61,-8.29a2.3,2.3 0 0 1 1.95,0.55a2.34,2.34 0 0 1 0.78,1.88c-0.16,3.08 -6.11,7.55 -7.3,8.41a1,1 0 0 1 -0.59,0.15z" class="cls-1"/>
  <path fill="#ffffff" id="svg_2" d="m11.4,22.2a0.78,0.78 0 0 1 -0.22,0c-0.24,-0.05 -5.93,-1.39 -9.1,-8.78a1,1 0 0 1 0.92,-1.42a8.54,8.54 0 0 0 3.94,-1.1a1,1 0 1 1 0.93,1.77a11.45,11.45 0 0 1 -3.35,1.19a12.43,12.43 0 0 0 6.68,6.24a11.76,11.76 0 0 0 3.67,-6a14.62,14.62 0 0 0 -4.82,-3.6a1,1 0 0 1 0.89,-1.79c4.2,2.1 5.73,4.46 5.8,4.56a1,1 0 0 1 0.15,0.53c0,2.41 -2.49,6.56 -4.93,8.22a1,1 0 0 1 -0.56,0.18z" class="cls-1"/>
  <path fill="#ffffff" id="svg_3" d="m11.83,16.12a1,1 0 0 1 -0.75,-0.34a24.92,24.92 0 0 0 -4.31,-3.07a1,1 0 0 1 1,-1.72a26.91,26.91 0 0 1 4.8,3.48a1,1 0 0 1 -0.1,1.41a1,1 0 0 1 -0.64,0.24z" class="cls-1"/>
 </g>
</svg>