<?xml version="1.0" encoding="UTF-8" standalone="no"?>
<svg
   xmlns:dc="http://purl.org/dc/elements/1.1/"
   xmlns:cc="http://creativecommons.org/ns#"
   xmlns:rdf="http://www.w3.org/1999/02/22-rdf-syntax-ns#"
   xmlns:svg="http://www.w3.org/2000/svg"
   xmlns="http://www.w3.org/2000/svg"
   xmlns:sodipodi="http://sodipodi.sourceforge.net/DTD/sodipodi-0.dtd"
   xmlns:inkscape="http://www.inkscape.org/namespaces/inkscape"
   width="450"
   height="450"
   viewBox="0 0 119.0625 119.0625"
   version="1.1"
   id="svg1688"
   inkscape:version="1.0.2 (e86c870879, 2021-01-15, custom)"
   sodipodi:docname="icon.svg">
  <defs
     id="defs1682" />
  <sodipodi:namedview
     id="base"
     pagecolor="#ffffff"
     bordercolor="#666666"
     borderopacity="1.0"
     inkscape:pageopacity="0.0"
     inkscape:pageshadow="2"
     inkscape:zoom="0.49497475"
     inkscape:cx="400"
     inkscape:cy="277.7658"
     inkscape:document-units="mm"
     inkscape:current-layer="layer1"
     inkscape:document-rotation="0"
     showgrid="false"
     units="px"
     inkscape:window-width="1432"
     inkscape:window-height="949"
     inkscape:window-x="488"
     inkscape:window-y="30"
     inkscape:window-maximized="0" />
  <metadata
     id="metadata1685">
    <rdf:RDF>
      <cc:Work
         rdf:about="">
        <dc:format>image/svg+xml</dc:format>
        <dc:type
           rdf:resource="http://purl.org/dc/dcmitype/StillImage" />
        <dc:title />
      </cc:Work>
    </rdf:RDF>
  </metadata>
  <g
     inkscape:label="Layer 1"
     inkscape:groupmode="layer"
     id="layer1">
    <rect
       style="fill:#ea0000;fill-opacity:1;stroke-width:0.2207;stroke-linecap:round;stroke-linejoin:round"
       id="rect26"
       width="119.0625"
       height="119.0625"
       x="0.55546838"
       y="0.13824721"
       ry="10.55106" />
    <g
       id="g1141"
       style="fill:#ffc300;fill-opacity:1"
       transform="matrix(1.1013058,0,0,1.1013058,9.4218362,3.8211901)">
      <g
         aria-label="FAST FOOD"
         id="text1090"
         style="font-style:normal;font-weight:normal;font-size:16px;line-height:1.25;font-family:sans-serif;fill:#ffc300;fill-opacity:1;stroke:none">
        <path
           d="m 8.1400793,96.040031 v -10.128 h 6.6239997 v 1.68 h -4.528 v 2.4 h 3.776 v 1.68 h -3.776 v 4.368 z"
           style="font-style:normal;font-variant:normal;font-weight:bold;font-stretch:normal;font-size:16px;font-family:Tajawal;-inkscape-font-specification:'Tajawal Bold';fill:#ffc300;fill-opacity:1"
           id="path1106" />
        <path
           d="m 18.172035,85.912031 h 1.76 l 3.728,10.128 h -2.128 q -0.272,-0.8 -0.672,-2.112 h -3.632 q -0.224,0.72 -0.688,2.112 h -2.096 z m 0.896,2.736 q -0.448,1.264 -1.232,3.552 h 2.432 q -0.752,-2.208 -1.2,-3.552 z"
           style="font-style:normal;font-variant:normal;font-weight:bold;font-stretch:normal;font-size:16px;font-family:Tajawal;-inkscape-font-specification:'Tajawal Bold';fill:#ffc300;fill-opacity:1"
           id="path1108" />
        <path
           d="m 31.292011,86.744031 q -0.288,0.432 -0.896,1.296 -1.28,-0.56 -2.288,-0.56 -1.328,0 -1.328,0.992 0,0.448 0.304,0.704 0.304,0.256 1.264,0.624 1.728,0.672 2.48,1.456 0.768,0.784 0.768,1.888 0,1.552 -1.168,2.4 -0.96,0.688 -2.384,0.688 -1.68,0 -3.584,-1.216 l 0.928,-1.296 q 0.928,0.624 2.384,0.624 1.648,0 1.648,-1.328 0,-0.864 -1.776,-1.472 -2.864,-0.96 -2.864,-3.072 0,-1.28 0.96,-2.032 0.896,-0.72 2.384,-0.72 1.696,0 3.168,1.024 z"
           style="font-style:normal;font-variant:normal;font-weight:bold;font-stretch:normal;font-size:16px;font-family:Tajawal;-inkscape-font-specification:'Tajawal Bold';fill:#ffc300;fill-opacity:1"
           id="path1110" />
        <path
           d="m 35.243979,87.592031 h -2.928 v -1.68 h 8.192 v 1.68 h -3.152 v 8.448 h -2.112 z"
           style="font-style:normal;font-variant:normal;font-weight:bold;font-stretch:normal;font-size:16px;font-family:Tajawal;-inkscape-font-specification:'Tajawal Bold';fill:#ffc300;fill-opacity:1"
           id="path1112" />
        <path
           d="m 45.611973,96.040031 v -10.128 h 6.624 v 1.68 h -4.528 v 2.4 h 3.776 v 1.68 h -3.776 v 4.368 z"
           style="font-style:normal;font-variant:normal;font-weight:bold;font-stretch:normal;font-size:16px;font-family:Tajawal;-inkscape-font-specification:'Tajawal Bold';fill:#ffc300;fill-opacity:1"
           id="path1114" />
        <path
           d="m 57.707943,85.720031 q 2.336,0 3.6,1.856 0.992,1.456 0.992,3.52 0,2.368 -1.296,3.792 -1.232,1.344 -3.296,1.344 -2.368,0 -3.6,-1.728 -0.992,-1.36 -0.992,-3.408 0,-2.4 1.296,-3.92 1.232,-1.456 3.296,-1.456 z m 0,8.752 q 1.152,0 1.776,-0.864 0.624,-0.88 0.624,-2.512 0,-1.744 -0.688,-2.72 -0.64,-0.864 -1.712,-0.864 -1.152,0 -1.792,0.944 -0.624,0.944 -0.624,2.64 0,3.376 2.416,3.376 z"
           style="font-style:normal;font-variant:normal;font-weight:bold;font-stretch:normal;font-size:16px;font-family:Tajawal;-inkscape-font-specification:'Tajawal Bold';fill:#ffc300;fill-opacity:1"
           id="path1116" />
        <path
           d="m 68.171932,85.720031 q 2.336,0 3.6,1.856 0.992,1.456 0.992,3.52 0,2.368 -1.296,3.792 -1.232,1.344 -3.296,1.344 -2.368,0 -3.6,-1.728 -0.992,-1.36 -0.992,-3.408 0,-2.4 1.296,-3.92 1.232,-1.456 3.296,-1.456 z m 0,8.752 q 1.152,0 1.776,-0.864 0.624,-0.88 0.624,-2.512 0,-1.744 -0.688,-2.72 -0.64,-0.864 -1.712,-0.864 -1.152,0 -1.792,0.944 -0.624,0.944 -0.624,2.64 0,3.376 2.416,3.376 z"
           style="font-style:normal;font-variant:normal;font-weight:bold;font-stretch:normal;font-size:16px;font-family:Tajawal;-inkscape-font-specification:'Tajawal Bold';fill:#ffc300;fill-opacity:1"
           id="path1118" />
        <path
           d="m 74.683921,85.928031 q 0.784,-0.208 2.768,-0.208 2.736,0 4.176,1.6 1.232,1.36 1.232,3.552 0,2.736 -1.568,4.112 -1.424,1.248 -3.968,1.248 -1.6,0 -2.64,-0.208 z m 2.096,8.576 q 0.32,0.08 0.8,0.08 3.088,0 3.088,-3.648 0,-1.808 -1.024,-2.768 -0.832,-0.768 -2.112,-0.768 -0.368,0 -0.752,0.08 z"
           style="font-style:normal;font-variant:normal;font-weight:bold;font-stretch:normal;font-size:16px;font-family:Tajawal;-inkscape-font-specification:'Tajawal Bold';fill:#ffc300;fill-opacity:1"
           id="path1120" />
      </g>
      <g
         id="g1084"
         transform="translate(-1.3357733)"
         style="fill:#ffc300;fill-opacity:1">
        <g
           id="g996"
           transform="translate(-7.992118,-34.488882)"
           style="fill:#ffc300;fill-opacity:1">
          <path
             d="m 91.793392,67.014063 h -73.929 c -0.707999,0 -1.374,-0.329 -1.8,-0.892 -0.428,-0.561 -0.567999,-1.292 -0.378999,-1.974 3.959,-14.322 20.422999,-24.72 39.145,-24.72 18.719999,0 35.180999,10.397 39.141999,24.721 0.188,0.682 0.048,1.411 -0.379999,1.974 -0.428,0.562 -1.093001,0.891 -1.799001,0.891 z m -70.735,-4.522 h 67.541 c -4.734,-10.901 -18.36,-18.541 -33.768999,-18.541 -15.410001,0 -29.042001,7.64 -33.772001,18.541 z"
             fill="#434B56"
             id="path14"
             style="fill:#ffc300;fill-opacity:1" />
          <path
             d="m 86.235392,112.77206 h -62.816 c -4.311,0 -7.815999,-3.506 -7.815999,-7.816 v -9.131997 c 0,-1.248 1.012999,-2.26 2.260999,-2.26 h 26.899001 c 3.13,0 6.456,1.854 6.456,5.924 v 1.372997 c 0.051,0.68 0.502,1.605 2.361,1.605 1.847999,0 2.21,-1.235 2.28,-1.66 v -1.038997 c 0,-0.079 0.004,-0.155 0.012,-0.234 0.226,-2.19 2.104,-5.449 6.342999,-5.449 4.885,0 6.556,3.561 6.757,5.441 0.01,0.081 0.014,0.159 0.014,0.242 v 0.495997 c 0.068,0.853 0.600001,3.391 4.418,3.391 1.629001,0 2.812,-0.375 3.518,-1.112 0.841,-0.876 0.843001,-2.094 0.843001,-2.105 -0.002,-0.057 -0.002,-0.113 0,-0.169 l 0.036,-1.125997 c 0.002,-0.04 0.004,-0.081 0.008,-0.125 0.183,-2.087 1.935999,-5.196 6.013999,-5.196 h 7.972 c 1.25,0 2.26,1.014 2.26,2.262 v 8.873997 c -0.003,4.309 -3.509,7.815 -7.82,7.815 z m -66.11,-14.687997 v 6.870997 c 0,1.816 1.478,3.294 3.294,3.294 h 62.816 c 1.816,0 3.296,-1.478 3.296,-3.294 v -6.611997 h -5.709999 c -1.219,0 -1.46,0.681 -1.504001,1.021 l -0.03,0.988997 c 0.005,0.623 -0.095,3.225 -2.099999,5.319 -1.594,1.661 -3.876001,2.503 -6.784001,2.503 -6.325,0 -8.813,-4.63 -8.938999,-7.744 l -0.002,-0.488997 c -0.106,-0.501 -0.558,-1.338 -2.247,-1.338 -1.454999,0 -1.767,0.908 -1.832,1.306 v 1.040997 c 0,0.078 -0.004,0.158 -0.012,0.236 -0.211,2.006 -1.901,5.802 -6.791,5.802 -4.949,0 -6.829,-3.636 -6.883,-6.078 v -1.423997 c 0,-0.931 -0.637,-1.403 -1.895,-1.403 z"
             fill="#434B56"
             id="path16"
             style="fill:#ffc300;fill-opacity:1" />
          <path
             d="m 34.328392,58.393063 c -0.229999,0 -0.464,-0.036 -0.695,-0.111 -1.187999,-0.384 -1.841,-1.66 -1.457,-2.847 l 3.677,-11.364 c 0.383,-1.187 1.653,-1.842 2.847,-1.456 1.188001,0.384 1.841,1.659 1.457,2.848 l -3.677,11.364 c -0.309999,0.956 -1.195999,1.566 -2.152,1.566 z"
             fill="#434B56"
             id="path18"
             style="fill:#ffc300;fill-opacity:1" />
          <path
             d="m 52.935392,58.393063 c -0.197,0 -0.396,-0.026 -0.595,-0.08 -1.206,-0.329 -1.915999,-1.571 -1.588,-2.777 l 3.932001,-14.44 c 0.329,-1.205 1.573,-1.917 2.777,-1.588 1.206,0.328 1.917,1.571 1.588,2.776 l -3.934,14.44 c -0.274,1.007 -1.185,1.669 -2.180001,1.669 z"
             fill="#434B56"
             id="path20"
             style="fill:#ffc300;fill-opacity:1" />
          <path
             d="m 71.945392,58.393063 c -0.244,0 -0.491999,-0.041 -0.736999,-0.125 -1.180001,-0.406 -1.807001,-1.693 -1.401001,-2.875 l 3.381,-9.819 c 0.407,-1.182 1.696,-1.808 2.875,-1.402 1.181,0.406 1.809,1.694 1.402,2.875 l -3.381,9.818 c -0.323,0.939 -1.202,1.528 -2.139,1.528 z"
             fill="#434B56"
             id="path22"
             style="fill:#ffc300;fill-opacity:1" />
          <path
             d="m 91.793392,90.856063 h -73.929 c -1.248,0 -2.260999,-1.013 -2.260999,-2.262 0,-1.249 1.012999,-2.262 2.260999,-2.262 h 73.929 c 1.25,0 2.26,1.013 2.26,2.262 0,1.249 -1.01,2.262 -2.26,2.262 z"
             fill="#434B56"
             id="path24"
             style="fill:#ffc300;fill-opacity:1" />
          <path
             d="m 93.039392,83.391063 h -76.421 c -3.947999,0 -7.1599995,-3.209 -7.1599995,-7.157 0,-3.949 3.2110005,-7.165 7.1599995,-7.165 h 76.421001 c 3.946,0 7.157997,3.215 7.157997,7.165 0,3.948 -3.211997,7.157 -7.157998,7.157 z m -76.421,-9.798 c -1.453999,0 -2.637999,1.184 -2.637999,2.64 0,1.453 1.184,2.636 2.637999,2.636 h 76.421001 c 1.455,0 2.637,-1.183 2.637,-2.636 0,-1.456 -1.182,-2.64 -2.637,-2.64 z"
             fill="#434B56"
             id="path26"
             style="fill:#ffc300;fill-opacity:1" />
        </g>
      </g>
    </g>
  </g>
</svg>
